# File created by Blade
# Date/Time:  Thu Jan 22 16:25:48 2015
# Frame Rate: 120.000 fps
#------------------------------------------------------
:FULLY-SPECIFIED
:DEGREES
249
root -0.771909 38.572087 10.792666 14.593182 14.341034 28.827085
RightUpLeg -10.980210 4.926768 -23.717548
RightLeg 16.341895 -0.000000 -0.000000
RightFoot -17.925674 -19.536522 8.181879
RightToeBase 3.346149 -0.000000 -0.000000
LeftUpLeg -9.238800 -18.242852 21.794232
LeftLeg 134.898408 -0.000000 -0.000000
LeftFoot 11.633179 1.878201 -20.571562
LeftToeBase 8.922694 -0.000000 -0.000000
Spine 11.860536 8.932252 -21.332089
RightShoulder -1.536931 -24.120455 -18.832760
RightArm 20.148660 -20.271315 55.355230
RightForeArm 11.120791 0.000000 55.079366
RightHand 3.569925 -0.000000 -1.844144
RightHandThumb1 -24.326973 -0.000000 -32.862282
LeftShoulder -30.839720 36.727382 -13.896555
LeftArm 36.013696 -8.922450 -60.774208
LeftForeArm 41.786557 0.000000 12.970899
LeftHand -11.191645 -0.000000 -19.274955
LeftHandThumb1 -26.253704 0.000000 33.147579
Head 7.450587 19.041007 -17.914637
250
root -0.770213 38.583770 10.802487 14.747362 14.203081 29.070814
RightUpLeg -11.128263 5.041382 -23.989416
RightLeg 16.421401 -0.000000 -0.000000
RightFoot -17.947064 -19.672416 8.056526
RightToeBase 3.218755 -0.000000 -0.000000
LeftUpLeg -9.227017 -18.186807 21.792364
LeftLeg 135.366416 -0.000000 -0.000000
LeftFoot 12.381437 1.725508 -20.834776
LeftToeBase 8.822715 -0.000000 -0.000000
Spine 11.719297 9.003226 -21.646397
RightShoulder -1.582523 -24.153266 -18.910320
RightArm 20.149566 -20.290055 55.277745
RightForeArm 11.233170 -0.000000 55.326130
RightHand 3.589968 -0.000000 -1.886370
RightHandThumb1 -24.326973 -0.000000 -32.862282
LeftShoulder -30.960807 36.680007 -14.179659
LeftArm 35.832662 -8.893830 -60.646840
LeftForeArm 41.694028 -0.000000 13.125985
LeftHand -11.274867 0.000000 -20.186125
LeftHandThumb1 -26.253704 0.000000 33.147579
Head 7.363204 19.002636 -18.178021
251
root -0.767380 38.596089 10.814984 14.903031 14.082907 29.314272
RightUpLeg -11.252074 5.131406 -24.262548
RightLeg 16.474766 -0.000000 -0.000000
RightFoot -17.963360 -19.762857 7.968891
RightToeBase 3.039806 -0.000000 -0.000000
LeftUpLeg -9.221619 -18.108718 21.764965
LeftLeg 135.689524 -0.000000 -0.000000
LeftFoot 12.894517 1.849810 -21.648776
LeftToeBase 9.961770 -0.000000 -0.000000
Spine 11.579287 9.062513 -21.939034
RightShoulder -1.593361 -24.111105 -19.027006
RightArm 20.038438 -20.275593 55.329685
RightForeArm 11.229786 -0.000000 55.535142
RightHand 3.641324 -0.000000 -1.845496
RightHandThumb1 -24.326973 -0.000000 -32.862282
LeftShoulder -31.076765 36.629412 -14.449500
LeftArm 35.688637 -8.900834 -60.557436
LeftForeArm 41.587584 -0.000000 13.185343
LeftHand -11.086539 -0.000000 -21.045979
LeftHandThumb1 -26.253704 0.000000 33.147579
Head 7.289377 18.953795 -18.487492
252
root -0.767437 38.605937 10.828650 15.038771 13.959133 29.520750
RightUpLeg -11.373076 5.261664 -24.497625
RightLeg 16.532305 -0.000000 -0.000000
RightFoot -17.976802 -19.884554 7.852314
RightToeBase 2.894728 -0.000000 -0.000000
LeftUpLeg -9.186849 -17.919455 21.741072
LeftLeg 135.910196 -0.000000 -0.000000
LeftFoot 13.445523 2.000624 -21.723953
LeftToeBase 10.371678 -0.000000 -0.000000
Spine 11.444046 9.139747 -22.189783
RightShoulder -1.664451 -24.238953 -19.069217
RightArm 20.085188 -20.204039 55.209769
RightForeArm 11.251005 -0.000000 55.816175
RightHand 3.619453 -0.000000 -1.911860
RightHandThumb1 -24.326973 -0.000000 -32.862282
LeftShoulder -31.174870 36.577733 -14.682707
LeftArm 35.552429 -8.862161 -60.485810
LeftForeArm 41.362026 -0.000000 13.211067
LeftHand -11.099976 -0.000000 -21.761530
LeftHandThumb1 -26.253704 0.000000 33.147579
Head 7.247725 18.899124 -18.794468
253
root -0.770365 38.615105 10.842560 15.166092 13.842484 29.717873
RightUpLeg -11.494170 5.376222 -24.716201
RightLeg 16.598903 -0.000000 -0.000000
RightFoot -18.010902 -20.000430 7.770927
RightToeBase 2.857285 -0.000000 -0.000000
LeftUpLeg -9.146109 -17.589529 21.661960
LeftLeg 136.064933 -0.000000 -0.000000
LeftFoot 14.040219 2.198623 -21.119149
LeftToeBase 9.554116 -0.000000 -0.000000
Spine 11.315522 9.209554 -22.439305
RightShoulder -1.691800 -24.201748 -19.138689
RightArm 19.994781 -20.176333 55.198337
RightForeArm 11.294417 -0.000000 56.006369
RightHand 3.686513 -0.000000 -1.818934
RightHandThumb1 -24.326973 -0.000000 -32.862282
LeftShoulder -31.306932 36.602660 -14.926127
LeftArm 35.524410 -8.931903 -60.518418
LeftForeArm 41.046974 -0.000000 13.176383
LeftHand -11.118676 -0.000000 -22.777161
LeftHandThumb1 -26.253704 0.000000 33.147579
Head 7.235989 18.866808 -19.069350
254
root -0.773670 38.622007 10.855470 15.289407 13.749324 29.872547
RightUpLeg -11.611799 5.498660 -24.891417
RightLeg 16.657324 -0.000000 -0.000000
RightFoot -18.033646 -20.129549 7.714332
RightToeBase 2.832191 -0.000000 -0.000000
LeftUpLeg -9.136586 -17.267900 21.628611
LeftLeg 136.153913 -0.000000 -0.000000
LeftFoot 14.459756 2.472535 -20.564399
LeftToeBase 9.280588 -0.000000 -0.000000
Spine 11.190748 9.262115 -22.609520
RightShoulder -1.767140 -24.237938 -19.180470
RightArm 19.992334 -20.191041 55.063902
RightForeArm 11.449305 -0.000000 56.247148
RightHand 3.654563 -0.000000 -2.051545
RightHandThumb1 -24.326973 -0.000000 -32.862282
LeftShoulder -31.427227 36.634672 -15.191768
LeftArm 35.445861 -9.024133 -60.552277
LeftForeArm 40.573606 0.000000 13.184002
LeftHand -11.265147 -0.000000 -23.466139
LeftHandThumb1 -26.253704 0.000000 33.147579
Head 7.232659 18.817759 -19.401590
255
root -0.775065 38.629761 10.869588 15.404905 13.666069 30.027349
RightUpLeg -11.712055 5.605426 -25.066819
RightLeg 16.706006 -0.000000 -0.000000
RightFoot -18.050675 -20.231886 7.684133
RightToeBase 2.791615 -0.000000 -0.000000
LeftUpLeg -9.121414 -16.909068 21.551526
LeftLeg 136.194330 -0.000000 -0.000000
LeftFoot 14.573863 2.803597 -20.285860
LeftToeBase 9.425307 -0.000000 -0.000000
Spine 11.080870 9.280293 -22.757687
RightShoulder -1.777615 -24.217259 -19.279384
RightArm 19.915272 -20.175946 55.008593
RightForeArm 11.479813 0.000000 56.456716
RightHand 3.679932 -0.000000 -2.065092
RightHandThumb1 -24.326973 -0.000000 -32.862282
LeftShoulder -31.573021 36.612322 -15.468812
LeftArm 35.355917 -9.254605 -60.638863
LeftForeArm 39.253134 -0.000000 13.147446
LeftHand -11.752327 -0.000000 -24.159119
LeftHandThumb1 -26.253704 0.000000 33.147579
Head 7.243661 18.836071 -19.776329
256
root -0.774864 38.637309 10.883821 15.509107 13.573733 30.186810
RightUpLeg -11.806027 5.698846 -25.247963
RightLeg 16.757104 -0.000000 -0.000000
RightFoot -18.068918 -20.314113 7.667486
RightToeBase 2.840152 -0.000000 -0.000000
LeftUpLeg -9.077626 -16.573250 21.429603
LeftLeg 136.178208 -0.000000 -0.000000
LeftFoot 14.617084 3.043224 -20.152777
LeftToeBase 9.354268 -0.000000 -0.000000
Spine 10.991322 9.326523 -22.904117
RightShoulder -1.826119 -24.214272 -19.356185
RightArm 19.879978 -20.147192 54.939021
RightForeArm 11.606377 -0.000000 56.647957
RightHand 3.695502 -0.000000 -1.908725
RightHandThumb1 -24.326973 -0.000000 -32.862282
LeftShoulder -31.726219 36.646695 -15.746698
LeftArm 35.325871 -9.676973 -60.852913
LeftForeArm 37.848032 -0.000000 13.094493
LeftHand -12.219241 0.000000 -24.745524
LeftHandThumb1 -26.253704 0.000000 33.147579
Head 7.238978 18.834333 -20.136255
257
root -0.776388 38.643396 10.898160 15.603036 13.512805 30.325646
RightUpLeg -11.873292 5.777282 -25.398291
RightLeg 16.791461 -0.000000 -0.000000
RightFoot -18.088144 -20.400871 7.672022
RightToeBase 2.840313 -0.000000 -0.000000
LeftUpLeg -9.031251 -16.197105 21.322585
LeftLeg 136.151150 -0.000000 -0.000000
LeftFoot 14.472662 3.163216 -19.767108
LeftToeBase 8.987600 -0.000000 -0.000000
Spine 10.918381 9.322076 -23.014198
RightShoulder -1.840671 -24.172475 -19.452696
RightArm 19.809532 -20.118051 54.893456
RightForeArm 11.582937 0.000000 56.804189
RightHand 3.740031 -0.000000 -2.038396
RightHandThumb1 -24.326973 -0.000000 -32.862282
LeftShoulder -31.874091 36.675490 -15.980331
LeftArm 35.245924 -10.253829 -61.262678
LeftForeArm 36.867570 -0.000000 13.160910
LeftHand -12.365402 -0.000000 -24.638534
LeftHandThumb1 -26.253704 0.000000 33.147579
Head 7.245270 18.878236 -20.494671
258
root -0.780946 38.647102 10.909709 15.699575 13.453090 30.428645
RightUpLeg -11.954117 5.860123 -25.510695
RightLeg 16.817235 -0.000000 -0.000000
RightFoot -18.101951 -20.507403 7.644375
RightToeBase 2.820660 -0.000000 -0.000000
LeftUpLeg -8.991905 -15.802235 21.248138
LeftLeg 136.103933 -0.000000 -0.000000
LeftFoot 14.137651 3.250031 -19.673797
LeftToeBase 9.241376 -0.000000 -0.000000
Spine 10.842269 9.338179 -23.070333
RightShoulder -1.866002 -24.149757 -19.538833
RightArm 19.739991 -20.097180 54.799445
RightForeArm 11.603403 -0.000000 56.995105
RightHand 3.751146 -0.000000 -2.235004
RightHandThumb1 -24.326973 -0.000000 -32.862282
LeftShoulder -31.961955 36.613566 -16.122111
LeftArm 35.051203 -10.737804 -61.660758
LeftForeArm 36.852024 -0.000000 13.390761
LeftHand -12.158600 -0.000000 -24.101613
LeftHandThumb1 -26.253704 0.000000 33.147579
Head 7.257623 18.932160 -20.879936
259
root -0.784392 38.651303 10.924095 15.783353 13.418786 30.528502
RightUpLeg -11.994823 5.919453 -25.611143
RightLeg 16.821306 -0.000000 -0.000000
RightFoot -18.120569 -20.586306 7.621736
RightToeBase 2.855556 -0.000000 -0.000000
LeftUpLeg -8.937549 -15.489311 21.168904
LeftLeg 136.019549 -0.000000 -0.000000
LeftFoot 13.789921 3.263746 -19.757153
LeftToeBase 9.488437 -0.000000 -0.000000
Spine 10.787084 9.324558 -23.117885
RightShoulder -1.901585 -24.192311 -19.593285
RightArm 19.752760 -20.027572 54.676215
RightForeArm 11.682913 -0.000000 57.156665
RightHand 3.727599 -0.000000 -2.273261
RightHandThumb1 -24.326973 -0.000000 -32.862282
LeftShoulder -32.073795 36.558788 -16.299972
LeftArm 34.836935 -11.154744 -61.959375
LeftForeArm 37.158756 -0.000000 13.755703
LeftHand -11.891853 -0.000000 -23.500745
LeftHandThumb1 -26.253704 0.000000 33.147579
Head 7.263371 19.001450 -21.235639
